<svg width="24" height="34" viewBox="0 0 24 34" fill="none" xmlns="http://www.w3.org/2000/svg">
<path d="M4.65186 6.05821C7.44077 5.94192 10.2334 5.96475 13.024 5.99508C14.271 6.02526 15.5186 6.03065 16.7656 6.05908C17.0733 6.06602 16.9289 6.06291 17.199 6.06852L18.4717 5.19678C18.1848 5.2024 18.3384 5.19929 18.0107 5.20621C16.7014 5.2342 15.3916 5.24053 14.0823 5.27021C11.3533 5.29896 8.62159 5.32882 5.89446 5.20708L4.65186 6.05821Z" fill="white"/>
<path d="M16.9776 6.54949C17.1351 8.67609 16.8607 10.8137 16.5287 12.9144C16.3965 13.751 16.2616 14.5878 16.0853 15.4171C15.8974 16.3009 15.6528 17.1732 15.4366 18.0512C14.6521 20.1291 14.3937 21.2965 12.9646 23.1065C11.8144 24.5632 10.1227 25.9754 8.3689 26.7631C7.38328 27.2058 5.65849 27.0372 4.68866 27.0198C4.1373 26.7881 3.53343 26.6453 3.03459 26.3249C1.71493 25.4772 1.04773 23.9434 1.11097 22.4721C1.16222 21.2799 1.55038 20.6687 2.02317 19.5897C2.69519 18.4282 3.48396 17.3056 4.48681 16.3703C5.2432 15.6648 6.12712 15.1258 7.02147 14.5949L5.71143 15.0757C4.84688 15.6103 3.98702 16.1539 3.26206 16.8582C2.98673 17.1257 2.73824 17.4174 2.49726 17.7129C1.65236 18.749 1.61899 18.9024 0.910592 20.0739C0.444497 21.161 0.0416506 21.8194 0.00236318 23.0202C-0.0471911 24.5349 0.684076 26.0958 2.0565 26.9387C2.58313 27.2622 3.21405 27.4009 3.79282 27.6319C4.52047 27.6343 5.2668 27.7936 5.97576 27.6391C7.88816 27.2224 10.1304 26.1343 11.6384 24.9156C12.4304 24.2755 13.1582 23.5538 13.7797 22.7639C15.2254 20.9268 15.4758 19.7786 16.271 17.6732C16.4989 16.7879 16.752 15.908 16.9548 15.0173C17.1458 14.1785 17.2961 13.3319 17.4519 12.4866C17.8548 10.3007 18.1797 8.09985 18.3572 5.88678L16.9776 6.54949Z" fill="white"/>
<path d="M17.5592 5.54424C17.5671 5.54424 17.5734 5.53822 17.5734 5.53079C17.5734 5.52336 17.5671 5.51733 17.5592 5.51733C17.5513 5.51733 17.5449 5.52336 17.5449 5.53079C17.5449 5.53822 17.5513 5.54424 17.5592 5.54424Z" fill="white" stroke="white" stroke-width="0.264583"/>
<path d="M19.2609 0C18.3328 0.0690552 17.3953 0.0200748 16.4684 0.102914C15.8963 0.154044 15.3246 0.221308 14.7608 0.326134C14.1757 0.434911 13.5879 0.551155 13.0272 0.74272C12.4763 0.930954 11.9708 1.22088 11.4425 1.45995C10.6749 2.02382 9.7853 2.46508 9.13978 3.15157C8.74777 3.56844 8.52918 4.13066 8.41689 4.67762C8.29366 5.27786 8.31961 5.91259 8.44997 6.51149C8.79022 8.07468 9.71736 9.34565 10.7686 10.5546C11.3781 11.2556 12.0875 11.8738 12.7469 12.5334C14.1511 13.8091 15.7904 15.2681 17.1254 16.6054C17.7945 17.2758 18.4629 17.9494 19.0732 18.6678C20.1383 19.9218 21.0888 21.2496 21.6932 22.7632C21.9479 23.4009 22.052 24.0832 22.2314 24.7432C22.2092 25.3895 22.2965 26.0475 22.1648 26.6821C21.865 28.1256 21.1589 29.151 20.1161 30.2173C19.6239 30.7206 19.0729 31.177 18.4847 31.5784C16.7848 32.7386 17.2002 32.5925 15.7033 32.4709C15.0913 32.4943 14.4788 32.5739 13.8673 32.5413C12.388 32.4624 11.0098 32.0147 9.97632 30.9847C9.31682 30.3275 9.26074 29.9992 8.91344 29.2002C8.86676 28.9141 8.78369 28.6312 8.77339 28.3419C8.75628 27.8609 8.88292 27.3506 9.08936 26.9129C9.32862 26.4057 9.71281 26.0157 10.1239 25.6327L8.73127 26.1798C8.34877 26.5782 7.99642 26.9829 7.78734 27.4931C7.44662 28.3247 7.48683 28.9773 7.72175 29.831C8.10269 30.6389 8.17673 30.9819 8.86739 31.6406C9.9628 32.6852 11.3894 33.1214 12.9218 33.1946C13.5483 33.2246 14.1753 33.1439 14.802 33.1185C15.7836 32.8025 16.796 32.5612 17.7468 32.1705C18.9631 31.6707 20.2334 30.7304 21.113 29.8119C22.1512 28.728 22.8815 27.6641 23.1663 26.2037C23.2912 25.5629 23.1857 24.9008 23.1954 24.2494C22.9956 23.5921 22.8706 22.9104 22.596 22.2776C21.9496 20.7883 20.9362 19.4492 19.8544 18.2216C19.2278 17.5107 18.5398 16.8497 17.8658 16.1786C16.226 14.5458 15.2308 13.6483 13.5407 12.0788C12.9006 11.4136 12.2053 10.7922 11.6204 10.0833C10.2863 8.46644 9.0027 6.36152 9.50561 4.20909C9.67694 3.4758 10.2626 2.87719 10.5072 2.16397C11.0316 1.91802 11.5316 1.61898 12.0804 1.42611C12.6309 1.23263 13.2101 1.11501 13.7872 1.01124C15.1752 0.761674 16.5748 0.797775 17.9756 0.88042L19.2609 0Z" fill="white"/>
<path d="M15.9397 5.77928C15.966 5.77928 15.9873 5.7592 15.9873 5.73443C15.9873 5.70966 15.966 5.68958 15.9397 5.68958C15.9134 5.68958 15.8921 5.70966 15.8921 5.73443C15.8921 5.7592 15.9134 5.77928 15.9397 5.77928Z" fill="white" stroke="white" stroke-width="0.264583"/>
</svg>
